<svg width="732" height="206" fill="none" xmlns="http://www.w3.org/2000/svg"><path fill-rule="evenodd" clip-rule="evenodd" d="M705.902 127.197c0 .251-.175.455-.39.455-6.061 0-9.291 1.561-14.456 4.056l-1.248.602c-.72.345-1.539.132-2.358-.358-.827-.494-1.73-1.314-2.671-2.341-1.884-2.057-3.994-5.022-6.053-8.125a350.391 350.391 0 01-4.014-6.237c-.623-.982-1.221-1.926-1.784-2.804a98.29 98.29 0 00-2.3-3.457c-.673-.949-1.209-1.619-1.588-1.956-10.12-9.019-24.262-1.675-26.684 11.027-.597 3.129-1.241 5.479-1.942 7.203-.7 1.721-1.471 2.853-2.34 3.496-1.774 1.314-3.744.456-5.748-.799-.597-.374-1.205-.787-1.828-1.21-1.532-1.043-3.154-2.146-4.935-2.873-2.466-1.008-5.175-1.26-8.2.502-.923.538-2.223 1.822-3.681 3.495-1.446 1.66-3.011 3.661-4.459 5.586a293.134 293.134 0 00-3.736 5.108l-.004.005c-.483.672-.879 1.223-1.155 1.595-.137.186-.25.334-.33.432a1.58 1.58 0 01-.12.133l-.001.001a.456.456 0 01-.13.089.345.345 0 01-.282.001c-.185-.082-.241-.274-.252-.374-.483-4.504-2.651-9.359-5.705-12.907-3.055-3.55-6.936-5.726-10.833-5.027-6.306 1.13-9.948 5.565-12.983 10.901-.971 1.706-1.869 3.484-2.773 5.274-.518 1.025-1.037 2.054-1.574 3.076-1.463 2.787-3.035 5.485-4.975 7.746-.24.279-.507.459-.801.523a1.277 1.277 0 01-.831-.115c-.497-.234-.964-.735-1.377-1.244-.212-.26-.422-.537-.623-.804l-.002-.003c-.203-.268-.397-.525-.586-.757a5.487 5.487 0 00-.533-.582c-.167-.153-.304-.239-.411-.275-1.464-.487-3.43-.599-5.423-.473-1.988.126-3.969.486-5.447.917-2.372.691-5.383 2.509-8.745 4.826-1.824 1.257-3.723 2.64-5.664 4.053a358.353 358.353 0 01-5.01 3.606c-3.655 2.568-7.32 4.938-10.665 6.413-3.331 1.469-6.425 2.089-8.897 1.028-1.89-.812-3.558-1.678-5.127-2.518l-.818-.439c-1.27-.683-2.485-1.336-3.727-1.922-2.997-1.413-6.136-2.424-10.449-2.424-1.984 0-3.103.494-3.846 1.105a5.5 5.5 0 00-.937 1.026 17.32 17.32 0 00-.338.48l-.052.076c-.128.185-.26.373-.398.552-.279.359-.597.699-1.014.942-.42.246-.916.38-1.537.374-1.22-.012-2.953-.571-5.625-1.955-3.991-2.067-7.575-5.378-11.114-8.812a468.47 468.47 0 01-1.24-1.207c-3.135-3.059-6.273-6.119-9.704-8.479-1.122-.772-3.107-2.457-5.614-4.586-.873-.742-1.81-1.538-2.797-2.368-3.832-3.224-8.438-6.991-13.046-10.207-4.614-3.221-9.198-5.866-12.99-6.875-1.895-.504-3.559-.59-4.918-.167-1.343.418-2.407 1.339-3.121 2.911-2.152 4.737-1.999 9.952-1.843 15.279l.035 1.249c.152 5.711.097 11.496-3.261 16.528-4.677 7.007-7.97 15.674-7.97 24.792 0 2.318-.58 9.187-1.451 15.18-.435 2.996-.948 5.803-1.505 7.726-.275.95-.576 1.738-.911 2.219-.167.24-.379.457-.644.534-.292.085-.563-.022-.785-.237-2.125-2.065-5.667-3.086-9.95-3.592-3.665-.432-7.801-.481-11.936-.53-.679-.008-1.359-.016-2.036-.026-4.783-.069-9.463-.222-13.222-1.079-3.736-.852-6.71-2.431-7.879-5.495-.726-1.903-1.029-3.743-1.239-5.415-.048-.384-.092-.757-.133-1.117-.143-1.232-.271-2.33-.532-3.311-.33-1.236-.863-2.235-1.895-2.977-1.05-.755-2.655-1.271-5.175-1.426-3.572-.219-5.992-.958-7.633-2.214-1.662-1.272-2.48-3.038-2.914-5.17-.374-1.838-.47-3.988-.575-6.355-.015-.342-.03-.689-.047-1.04-.131-2.799-.33-5.919-1.017-9.323-.111-.548-.224-1.36-.352-2.282-.038-.269-.076-.548-.117-.832-.181-1.273-.397-2.683-.683-3.964-.289-1.292-.637-2.399-1.061-3.097-.21-.346-.42-.558-.621-.659-.189-.096-.403-.111-.671.011-6.493 2.942-13.17 5.002-19.867 7.067l-.431.133c-5.291 1.632-8.924 2.515-11.488 2.646-2.578.132-4.159-.494-5.247-1.978-.53-.723-.924-1.625-1.268-2.673-.343-1.048-.647-2.271-.985-3.645l-.042-.172c-.67-2.727-1.498-6.098-3.066-10.118-1.356-3.477-3.236-5.859-5.382-7.993-.961-.956-1.971-1.858-3.015-2.789l-.378-.338c-1.174-1.05-2.384-2.147-3.584-3.39-.873-.904-2.247-1.85-3.865-2.855-.709-.441-1.478-.9-2.263-1.369-.964-.577-1.954-1.168-2.893-1.761-1.725-1.088-3.377-2.237-4.634-3.455-1.246-1.207-2.176-2.55-2.327-4.043-.302-3.001-1.322-4.384-2.627-4.883-1.362-.522-3.169-.14-5.135.774-3.911 1.819-8.118 5.583-9.85 7.197a1146.08 1146.08 0 01-6.262 5.782c-15.098 13.872-28.707 26.376-38.685 46.725l-.074.152c-.915 1.868-4.092 8.353-7.17 12.53-.793 1.077-1.592 2.017-2.354 2.687-.75.66-1.522 1.109-2.253 1.091-.782-.02-1.403-.566-1.829-1.578-.416-.99-.674-2.475-.762-4.528-.265-6.166-2.211-12.757-4.726-19.157-1.964-5-4.263-9.854-6.359-14.279-.587-1.24-1.158-2.445-1.702-3.611-10.236-21.965-21.585-44.596-39.387-59.079-1.291-1.05-2.446-1.966-3.493-2.797-2.79-2.212-4.817-3.82-6.642-5.769-2.527-2.699-4.668-6.05-7.969-12.542l-.734-1.447c-3.368-6.645-6.968-13.745-11.406-18.642-2.374-2.62-4.971-4.587-7.88-5.517-2.904-.928-6.147-.832-9.832.73-1.284.544-2.657 1.647-4.055 3.11-1.393 1.457-2.79 3.248-4.122 5.138-2.173 3.083-4.156 6.4-5.662 8.922-.342.57-.659 1.101-.948 1.579-10.759 17.761-24.544 31.611-38.492 45.624-2.245 2.257-4.496 4.517-6.738 6.799-.163.166-.41.146-.55-.043a.51.51 0 01.036-.642c2.25-2.289 4.504-4.554 6.752-6.813 13.951-14.017 27.656-27.787 38.354-45.45.285-.47.6-.995.938-1.563 1.507-2.52 3.512-5.876 5.707-8.99 1.346-1.91 2.77-3.74 4.204-5.239 1.43-1.495 2.89-2.685 4.309-3.287 3.823-1.62 7.231-1.735 10.305-.753 3.068.981 5.775 3.046 8.211 5.735 4.522 4.989 8.175 12.197 11.527 18.812l.748 1.474c3.289 6.468 5.383 9.727 7.825 12.335 1.78 1.901 3.742 3.458 6.507 5.65 1.055.836 2.225 1.765 3.547 2.84 17.972 14.621 29.396 37.439 39.626 59.391.538 1.154 1.106 2.353 1.69 3.587 2.098 4.429 4.417 9.323 6.395 14.358 2.529 6.437 4.523 13.153 4.795 19.49.086 2.012.337 3.35.684 4.173.337.802.735 1.059 1.145 1.07.461.011 1.056-.284 1.766-.908.699-.615 1.456-1.5 2.232-2.553 3.027-4.108 6.173-10.529 7.088-12.397l.071-.144c10.058-20.513 23.792-33.129 38.883-46.992 2.061-1.894 4.148-3.811 6.254-5.774 1.729-1.613 6.017-5.457 10.048-7.332 2.005-.932 4.033-1.419 5.668-.794 1.692.648 2.834 2.428 3.159 5.642.114 1.132.843 2.28 2.05 3.449 1.195 1.159 2.79 2.273 4.506 3.355.952.601 1.911 1.174 2.856 1.738.78.466 1.55.926 2.297 1.39 1.614 1.002 3.065 1.993 4.015 2.977 1.178 1.22 2.368 2.299 3.541 3.348l.379.339c1.041.929 2.068 1.846 3.045 2.818 2.199 2.186 4.168 4.671 5.587 8.309 1.592 4.081 2.433 7.507 3.104 10.236l.044.18c.34 1.383.634 2.566.963 3.57.329 1.002.684 1.796 1.133 2.407.868 1.185 2.163 1.786 4.619 1.661 2.47-.127 6.028-.984 11.322-2.617l.413-.128c6.71-2.069 13.351-4.117 19.802-7.041.444-.201.872-.196 1.264.002.38.191.69.545.948.969.51.84.886 2.083 1.179 3.393.296 1.323.517 2.768.698 4.044.043.299.083.587.121.862.127.913.234 1.679.338 2.193.703 3.485.905 6.671 1.037 9.481l.047 1.046c.106 2.381.198 4.438.554 6.189.402 1.975 1.133 3.51 2.583 4.62 1.471 1.126 3.727 1.85 7.246 2.066 2.577.158 4.333.689 5.544 1.56 1.229.884 1.859 2.09 2.23 3.481.283 1.061.422 2.262.566 3.509.041.349.082.702.126 1.057.207 1.644.498 3.388 1.18 5.178 1.001 2.622 3.614 4.127 7.316 4.971 3.679.839 8.289.994 13.081 1.063l2.029.025c4.132.049 8.309.098 12.012.535 4.295.507 8.05 1.543 10.372 3.798.073.071.095.053.096.053.027-.008.106-.051.227-.224.241-.346.506-1 .778-1.937.536-1.851 1.041-4.6 1.475-7.587.868-5.974 1.439-12.785 1.439-15.028 0-9.372 3.383-18.231 8.135-25.351 3.168-4.747 3.25-10.22 3.097-15.941-.011-.427-.024-.856-.037-1.286-.157-5.279-.319-10.734 1.935-15.696.82-1.803 2.064-2.882 3.609-3.364 1.53-.476 3.334-.362 5.294.159 3.918 1.043 8.588 3.75 13.218 6.981 4.636 3.237 9.264 7.023 13.101 10.251 1.008.848 1.959 1.656 2.841 2.404 2.489 2.114 4.422 3.756 5.51 4.503 3.49 2.401 6.68 5.513 9.809 8.567l1.237 1.204c3.543 3.437 7.051 6.67 10.932 8.68 2.656 1.375 4.265 1.866 5.315 1.877.515.005.886-.106 1.18-.278.297-.173.54-.423.784-.738.122-.159.242-.329.37-.514.126-.182.261-.379.405-.576a6.338 6.338 0 011.08-1.178c.906-.746 2.195-1.272 4.296-1.272 4.435 0 7.674 1.044 10.742 2.491 1.261.595 2.496 1.259 3.767 1.943l.81.435c1.565.837 3.211 1.691 5.072 2.49 2.195.943 5.061.426 8.351-1.025 3.275-1.444 6.889-3.778 10.538-6.341 1.657-1.164 3.332-2.384 4.981-3.585 1.959-1.425 3.882-2.826 5.699-4.078 3.359-2.314 6.458-4.199 8.953-4.925 1.529-.446 3.559-.814 5.593-.943 2.028-.128 4.094-.022 5.68.507.244.081.472.245.678.433.209.19.416.424.618.671.2.245.402.513.601.777l.007.009c.203.269.403.534.603.78.41.504.777.872 1.104 1.026a.6.6 0 00.394.064c.111-.024.242-.096.393-.272 1.874-2.184 3.407-4.808 4.862-7.578.521-.992 1.034-2.008 1.549-3.028.913-1.807 1.832-3.626 2.812-5.35 3.087-5.425 6.892-10.11 13.515-11.297 4.229-.758 8.346 1.613 11.503 5.282 2.952 3.429 5.12 8.05 5.806 12.501.261-.356.607-.836 1.02-1.411l.005-.007a293.75 293.75 0 013.746-5.122c1.453-1.932 3.032-3.951 4.498-5.634 1.455-1.669 2.834-3.05 3.88-3.66 3.255-1.897 6.191-1.617 8.808-.548 1.855.759 3.583 1.934 5.138 2.991.606.412 1.185.806 1.736 1.15 2.029 1.27 3.603 1.837 4.96.833.696-.516 1.386-1.478 2.053-3.119.666-1.637 1.294-3.915 1.885-7.01 2.537-13.309 17.318-21 27.92-11.553.457.408 1.044 1.153 1.716 2.1.678.957 1.464 2.154 2.323 3.491.569.887 1.17 1.836 1.794 2.821 1.264 1.994 2.621 4.135 3.997 6.209 2.055 3.098 4.133 6.014 5.969 8.017.919 1.003 1.76 1.758 2.493 2.196.742.443 1.299.52 1.704.326l1.259-.607c5.166-2.497 8.524-4.12 14.743-4.12.215 0 .39.204.39.455z" fill="#fff"/><path d="M57.775 8.7h2.176c1.319 0 1.915-.765 1.915-1.779 0-1.024-.615-1.602-1.178-1.638V5.22c.521-.155.956-.569.956-1.396 0-.978-.582-1.737-1.79-1.737h-2.08V8.7zm.856-.855v-2.12h1.267c.687 0 1.117.518 1.117 1.148 0 .555-.324.972-1.148.972h-1.236zm0-2.898V2.935h1.17c.679 0 1.003.417 1.003.966 0 .64-.449 1.046-1.025 1.046H58.63zM64.052 8.7h3.592v-.859H64.91V5.816h2.516V4.96H64.91V2.945h2.702v-.86h-3.559v6.616zM69.496 8.7h.244c1.292 0 1.602-1.117 1.677-3.242l.089-2.526h1.937v5.769h.845V2.086H70.7l-.097 3.107c-.06 1.915-.26 2.616-.94 2.636l-.166.006v.866zM76.706 2.086V8.7h.787l2.886-4.852h.052v4.852h.857V2.086h-.793l-2.888 4.858h-.053V2.086h-.848zM87.07 8.7h1.045l-2.342-3.623 2.356-2.991h-1.062L84.858 4.88h-.294V2.086h-.856V8.7h.856V5.736h.588L87.07 8.7zM90.153 2.086V8.7h.787l2.885-4.852h.053v4.852h.856V2.086h-.792l-2.888 4.858H91V2.086h-.848zM97.154 2.086V8.7h.788l2.885-4.852h.053v4.852h.856V2.086h-.793l-2.888 4.858h-.052V2.086h-.849zM99.99.406c0 .326-.155.614-.543.614-.394 0-.54-.29-.54-.614h-.68c0 .727.474 1.228 1.22 1.228.751 0 1.225-.501 1.225-1.228h-.682zM54.225 19.615h.856v-2.884h2.83v2.884h.86V13h-.86v2.875h-2.83V13h-.856v6.615zM66.119 16.308c0-2.116-1.087-3.398-2.556-3.398-1.474 0-2.558 1.282-2.558 3.398 0 2.112 1.084 3.398 2.558 3.398 1.47 0 2.556-1.283 2.556-3.398zm-.848 0c0 1.611-.732 2.487-1.708 2.487-.978 0-1.707-.876-1.707-2.487 0-1.612.729-2.487 1.707-2.487.976 0 1.708.875 1.708 2.487zM68.357 19.615h2.176c1.32 0 1.915-.765 1.915-1.78 0-1.023-.615-1.602-1.178-1.637v-.065c.521-.155.956-.568.956-1.395 0-.979-.582-1.738-1.79-1.738h-2.079v6.615zm.857-.856V16.64h1.266c.688 0 1.117.517 1.117 1.147 0 .556-.324.972-1.147.972h-1.236zm0-2.897V13.85h1.17c.678 0 1.003.416 1.003.966 0 .639-.45 1.046-1.026 1.046h-1.147zM78.174 13h-3.54v6.615h.857V13.86h2.683V13zM85.004 16.308c0-2.116-1.086-3.398-2.555-3.398-1.474 0-2.558 1.282-2.558 3.398 0 2.112 1.084 3.398 2.558 3.398 1.469 0 2.555-1.283 2.555-3.398zm-.848 0c0 1.611-.731 2.487-1.707 2.487-.978 0-1.707-.876-1.707-2.487 0-1.612.729-2.487 1.707-2.487.976 0 1.707.875 1.707 2.487zM87.243 19.615h.856V17.29h1.164c1.317 0 1.968-.927 1.968-2.148 0-1.218-.645-2.142-1.965-2.142h-2.023v6.615zm.856-3.172v-2.587h1.076c.848 0 1.194.536 1.194 1.286 0 .749-.346 1.301-1.183 1.301h-1.087zM98.337 16.308c0-2.116-1.087-3.398-2.556-3.398-1.474 0-2.558 1.282-2.558 3.398 0 2.112 1.084 3.398 2.558 3.398 1.47 0 2.556-1.283 2.556-3.398zm-.848 0c0 1.611-.732 2.487-1.708 2.487-.978 0-1.707-.876-1.707-2.487 0-1.612.729-2.487 1.707-2.487.976 0 1.708.875 1.708 2.487zM100.146 21.214h.82v-1.599h3.811v1.59h.82v-2.436h-.643V13h-3.5l-.133 2.794c-.086 1.841-.421 2.6-.801 2.975h-.374v2.445zm1.383-2.445c.324-.604.543-1.576.612-2.975l.089-1.935h1.904v4.91h-2.605zM4.54 113.958H.163v6.614h.853v-5.762h2.672v5.762h.854v-6.614zM11.736 116.109c-.194-1.415-1.145-2.242-2.345-2.242-1.47 0-2.553 1.282-2.553 3.398s1.078 3.398 2.553 3.398c1.247 0 2.159-.911 2.345-2.219l-.865-.003c-.147.846-.757 1.311-1.475 1.311-.972 0-1.707-.869-1.707-2.487 0-1.605.732-2.487 1.71-2.487.724 0 1.33.475 1.472 1.331h.865zM17.293 120.572h1.045l-2.342-3.623 2.356-2.991H17.29l-2.209 2.793h-.293v-2.793h-.857v6.614h.857v-2.965h.587l1.918 2.965zM25.025 117.265c0-2.116-1.086-3.398-2.555-3.398-1.475 0-2.559 1.282-2.559 3.398 0 2.112 1.084 3.398 2.558 3.398 1.47 0 2.556-1.282 2.556-3.398zm-.848 0c0 1.612-.732 2.487-1.707 2.487-.979 0-1.708-.875-1.708-2.487s.73-2.487 1.707-2.487c.976 0 1.708.875 1.708 2.487zM27.264 120.572h2.175c1.32 0 1.915-.765 1.915-1.779 0-1.024-.615-1.602-1.178-1.638v-.064c.522-.155.957-.569.957-1.396 0-.978-.582-1.737-1.79-1.737h-2.08v6.614zm.856-.855v-2.119h1.267c.687 0 1.116.517 1.116 1.146 0 .556-.324.973-1.147.973H28.12zm0-2.898v-2.012h1.17c.679 0 1.003.417 1.003.966 0 .639-.45 1.046-1.026 1.046H28.12zM127.547 139.373h1.768v5.756h.854v-5.756h1.771v-.859h-4.393v.859zM134.081 145.129h2.176c1.319 0 1.915-.766 1.915-1.78 0-1.024-.615-1.602-1.178-1.637v-.065c.521-.155.956-.569.956-1.395 0-.979-.582-1.738-1.79-1.738h-2.079v6.615zm.857-.856v-2.119h1.266c.688 0 1.117.517 1.117 1.147 0 .555-.324.972-1.147.972h-1.236zm0-2.897v-2.013h1.169c.679 0 1.004.417 1.004.966 0 .64-.449 1.047-1.026 1.047h-1.147zM140.359 145.129h3.592v-.859h-2.736v-2.026h2.517v-.855h-2.517v-2.016h2.702v-.859h-3.558v6.615zM146.232 145.129h.856v-2.326h1.165c1.316 0 1.967-.927 1.967-2.148 0-1.217-.645-2.141-1.965-2.141h-2.023v6.615zm.856-3.172v-2.587h1.076c.848 0 1.194.536 1.194 1.285 0 .75-.346 1.302-1.183 1.302h-1.087zM153.26 141.182v-2.668h-.859v6.615h2.126c1.263 0 1.987-.821 1.984-2.006.003-1.182-.721-1.941-1.984-1.941h-1.267zm0 .84h1.267c.734 0 1.139.491 1.139 1.088 0 .614-.405 1.179-1.139 1.179h-1.267v-2.267zM204.166 165.139v-6.615h-2.023c-1.316 0-1.965.856-1.965 2.074 0 .888.347 1.563 1.042 1.863l-1.258 2.678h.976l1.153-2.503H203.31v2.503h.856zm-.856-3.362h-1.086c-.835 0-1.184-.433-1.184-1.179 0-.75.349-1.218 1.195-1.218h1.075v2.397zM206.582 165.139h.856v-2.326h1.164c1.317 0 1.968-.927 1.968-2.148 0-1.217-.646-2.141-1.965-2.141h-2.023v6.615zm.856-3.172v-2.587h1.075c.849 0 1.195.536 1.195 1.285 0 .75-.346 1.302-1.183 1.302h-1.087zM217.675 161.831c0-2.115-1.086-3.397-2.555-3.397-1.474 0-2.558 1.282-2.558 3.397 0 2.113 1.084 3.398 2.558 3.398 1.469 0 2.555-1.282 2.555-3.398zm-.848 0c0 1.612-.731 2.487-1.707 2.487-.978 0-1.707-.875-1.707-2.487 0-1.611.729-2.487 1.707-2.487.976 0 1.707.876 1.707 2.487zM224.628 160.675c-.194-1.415-1.144-2.241-2.344-2.241-1.469 0-2.553 1.282-2.553 3.397 0 2.116 1.078 3.398 2.553 3.398 1.247 0 2.159-.911 2.344-2.219l-.864-.003c-.147.846-.757 1.311-1.475 1.311-.973 0-1.707-.868-1.707-2.487 0-1.605.732-2.487 1.71-2.487.723 0 1.33.475 1.472 1.331h.864zM226.394 165.139h.244c1.292 0 1.602-1.118 1.677-3.243l.089-2.526h1.937v5.769h.846v-6.615h-3.59l-.097 3.107c-.061 1.916-.26 2.616-.939 2.636l-.167.006v.866zM234.084 165.139l.521-1.751h2.217l.519 1.751h.909l-2.043-6.615h-.989l-2.043 6.615h.909zm.771-2.591l.837-2.822h.044l.837 2.822h-1.718zM240.24 165.139h2.176c1.319 0 1.915-.766 1.915-1.78 0-1.024-.615-1.602-1.178-1.637v-.065c.521-.155.956-.568.956-1.395 0-.979-.582-1.738-1.79-1.738h-2.079v6.615zm.857-.856v-2.119h1.266c.688 0 1.117.517 1.117 1.147 0 .555-.324.972-1.147.972h-1.236zm0-2.897v-2.013h1.169c.679 0 1.004.417 1.004.966 0 .64-.449 1.047-1.026 1.047h-1.147zM246.088 165.139h.244c1.292 0 1.602-1.118 1.677-3.243l.088-2.526h1.938v5.769h.845v-6.615h-3.589l-.097 3.107c-.061 1.916-.261 2.616-.94 2.636l-.166.006v.866zM254.163 161.192v-2.668h-.859v6.615h2.125c1.264 0 1.988-.821 1.985-2.006.003-1.182-.721-1.941-1.985-1.941h-1.266zm0 .84h1.266c.735 0 1.14.491 1.14 1.088 0 .614-.405 1.179-1.14 1.179h-1.266v-2.267zM265.162 103.952v6.615h.815v-4.79h.053l1.674 4.78h.676l1.674-4.777h.053v4.787h.815v-6.615h-1.04l-1.807 5.142h-.066l-1.808-5.142h-1.039zM273.962 110.567l.521-1.751h2.217l.518 1.751h.909l-2.042-6.615h-.99l-2.042 6.615h.909zm.77-2.591l.837-2.822h.045l.837 2.822h-1.719zM280.118 110.567h.856v-2.884h2.83v2.884h.859v-6.615h-.859v2.875h-2.83v-2.875h-.856v6.615zM286.801 104.811h1.769v5.756h.853v-5.756h1.771v-.859h-4.393v.859zM293.738 110.657h.388c.887 0 1.181-.578 1.43-1.237l1.962-5.468h-.898l-1.325 3.824-1.488-3.824h-.909l1.996 4.964-.081.236c-.122.346-.31.627-.734.627h-.341v.878zM299.499 110.567h.856v-2.326h1.165c1.316 0 1.967-.927 1.967-2.148 0-1.217-.645-2.141-1.965-2.141h-2.023v6.615zm.856-3.172v-2.587h1.076c.848 0 1.194.536 1.194 1.285 0 .75-.346 1.302-1.183 1.302h-1.087zM310.593 107.259c0-2.115-1.087-3.397-2.556-3.397-1.474 0-2.558 1.282-2.558 3.397 0 2.113 1.084 3.398 2.558 3.398 1.469 0 2.556-1.282 2.556-3.398zm-.848 0c0 1.612-.732 2.487-1.708 2.487-.978 0-1.707-.875-1.707-2.487 0-1.611.729-2.487 1.707-2.487.976 0 1.708.876 1.708 2.487zM312.831 110.567h2.176c1.319 0 1.915-.766 1.915-1.78 0-1.024-.615-1.602-1.178-1.637v-.065c.521-.155.956-.568.956-1.395 0-.979-.582-1.738-1.79-1.738h-2.079v6.615zm.857-.856v-2.119h1.266c.688 0 1.117.517 1.117 1.147 0 .555-.324.972-1.147.972h-1.236zm0-2.897v-2.013h1.169c.679 0 1.004.417 1.004.966 0 .64-.449 1.047-1.026 1.047h-1.147zM324.039 107.259c0-2.115-1.086-3.397-2.555-3.397-1.474 0-2.558 1.282-2.558 3.397 0 2.113 1.084 3.398 2.558 3.398 1.469 0 2.555-1.282 2.555-3.398zm-.848 0c0 1.612-.731 2.487-1.707 2.487-.978 0-1.707-.875-1.707-2.487 0-1.611.729-2.487 1.707-2.487.976 0 1.707.876 1.707 2.487zM309.507 136.037h1.045l-2.342-3.624 2.356-2.991h-1.061l-2.209 2.794h-.294v-2.794h-.856v6.615h.856v-2.965h.588l1.917 2.965zM317.239 132.729c0-2.115-1.086-3.397-2.555-3.397-1.475 0-2.558 1.282-2.558 3.397 0 2.113 1.083 3.398 2.558 3.398 1.469 0 2.555-1.282 2.555-3.398zm-.848 0c0 1.612-.731 2.487-1.707 2.487-.978 0-1.707-.875-1.707-2.487 0-1.611.729-2.487 1.707-2.487.976 0 1.707.876 1.707 2.487zM318.962 130.281h1.768v5.756h.854v-5.756h1.771v-.859h-4.393v.859zM325.496 136.037h3.592v-.859h-2.735v-2.025h2.516v-.856h-2.516v-2.016h2.702v-.859h-3.559v6.615zM330.94 136.037h.244c1.291 0 1.602-1.118 1.677-3.243l.088-2.526h1.938v5.769h.845v-6.615h-3.589l-.097 3.107c-.061 1.915-.261 2.616-.94 2.636l-.166.006v.866zM339.015 132.09v-2.668h-.859v6.615h2.125c1.264 0 1.988-.821 1.985-2.006.003-1.182-.721-1.941-1.985-1.941h-1.266zm0 .84h1.266c.735 0 1.14.491 1.14 1.088 0 .614-.405 1.179-1.14 1.179h-1.266v-2.267zM344.481 136.037h.856v-2.884h2.83v2.884h.859v-6.615h-.859v2.875h-2.83v-2.875h-.856v6.615zM351.444 129.422v6.615h.787l2.886-4.851h.052v4.851h.857v-6.615h-.793l-2.888 4.858h-.053v-4.858h-.848zM358.559 129.422v2.183c-.002 1.476.765 2.058 2.007 2.058.546 0 1.017-.081 1.425-.217v2.591h.848v-6.615h-.848v3.172a5.041 5.041 0 01-1.425.213c-.74 0-1.161-.291-1.161-1.202v-2.183h-.846zM367.767 132.313h-2.516v.836h2.516v-.836zM372.027 129.422h-.798c-.031.181-.463 1.017-1.292 1.017v.821c.643 0 1.089-.297 1.184-.491h.047v5.268h.859v-6.615zM412.31 164.892h-3.539v6.615h.856v-5.756h2.683v-.859zM414.017 171.507h.244c1.291 0 1.602-1.118 1.676-3.243l.089-2.526h1.937v5.769h.846v-6.615h-3.589l-.097 3.107c-.061 1.915-.261 2.616-.94 2.635l-.166.007v.866zM421.706 171.507l.521-1.751h2.218l.518 1.751h.909l-2.043-6.615h-.989l-2.043 6.615h.909zm.771-2.591l.837-2.823h.044l.837 2.823h-1.718zM429.761 171.597c1.159 0 2.009-.807 2.007-1.906.002-.836-.433-1.437-1.187-1.573v-.051c.594-.178.979-.721.976-1.463.003-.973-.682-1.803-1.774-1.803-1.042 0-1.879.733-1.907 1.809h.829c.019-.607.51-.975 1.067-.975.579 0 .959.41.956 1.02.003.64-.438 1.06-1.067 1.06h-.479v.814h.479c.787 0 1.242.465 1.242 1.13 0 .643-.48 1.079-1.148 1.079-.615 0-1.094-.368-1.128-.956h-.87c.036 1.079.857 1.815 2.004 1.815zM438.994 168.199c0-2.115-1.086-3.398-2.555-3.398-1.475 0-2.558 1.283-2.558 3.398 0 2.112 1.083 3.398 2.558 3.398 1.469 0 2.555-1.282 2.555-3.398zm-.848 0c0 1.612-.731 2.487-1.707 2.487-.978 0-1.707-.875-1.707-2.487s.729-2.487 1.707-2.487c.976 0 1.707.875 1.707 2.487zM441.233 171.507h2.176c1.319 0 1.915-.766 1.915-1.78 0-1.024-.616-1.602-1.178-1.638v-.064c.521-.155.956-.569.956-1.396 0-.978-.582-1.737-1.79-1.737h-2.079v6.615zm.856-.856v-2.119h1.267c.687 0 1.117.517 1.117 1.146 0 .556-.324.973-1.148.973h-1.236zm0-2.898v-2.012h1.17c.679 0 1.003.417 1.003.966 0 .639-.449 1.046-1.025 1.046h-1.148zM414.833 106.248h-4.38v6.615h.854V107.1h2.672v5.763h.854v-6.615zM417.313 112.863h3.592v-.86h-2.736v-2.025h2.517v-.856h-2.517v-2.015h2.703v-.859h-3.559v6.615zM423.186 112.863h.857v-2.326h1.164c1.316 0 1.968-.927 1.968-2.148 0-1.217-.646-2.141-1.965-2.141h-2.024v6.615zm.857-3.172v-2.587h1.075c.848 0 1.195.536 1.195 1.285 0 .75-.347 1.302-1.184 1.302h-1.086zM429.349 106.248v6.615h.815v-4.79h.053l1.674 4.78h.676l1.674-4.777h.053v4.787h.815v-6.615h-1.04l-1.807 5.142h-.066l-1.807-5.142h-1.04zM438.534 108.916v-2.668h-.859v6.615h2.126c1.264 0 1.987-.821 1.984-2.006.003-1.182-.72-1.941-1.984-1.941h-1.267zm0 .839h1.267c.734 0 1.139.491 1.139 1.089 0 .614-.405 1.179-1.139 1.179h-1.267v-2.268zM467.027 141.193h1.768v5.756h.854v-5.756h1.771v-.859h-4.393v.859zM474.418 140.334h-.856v6.615h.856v-2.81h.995c.155 1.815 1.181 2.901 2.536 2.901 1.469 0 2.556-1.283 2.556-3.398 0-2.116-1.087-3.398-2.556-3.398-1.394 0-2.439 1.147-2.55 3.059h-.981v-2.969zm5.238 3.308c0 1.611-.731 2.487-1.707 2.487-.978 0-1.707-.876-1.707-2.487 0-1.612.729-2.487 1.707-2.487.976 0 1.707.875 1.707 2.487zM482.598 140.334v6.615h.815v-4.79h.053l1.674 4.78h.676l1.674-4.777h.053v4.787h.815v-6.615h-1.04l-1.807 5.142h-.066l-1.807-5.142h-1.04zM490.918 146.949h3.592v-.859h-2.735v-2.025h2.516v-.856h-2.516v-2.016h2.702v-.859h-3.559v6.615zM496.792 146.949h.856v-2.884h2.83v2.884h.859v-6.615h-.859v2.875h-2.83v-2.875h-.856v6.615zM504.62 143.002v-2.668h-.859v6.615h2.126c1.263 0 1.987-.82 1.984-2.006.003-1.182-.721-1.941-1.984-1.941h-1.267zm0 .84h1.267c.734 0 1.139.491 1.139 1.088 0 .614-.405 1.179-1.139 1.179h-1.267v-2.267zM544.307 163.65c0-2.116-1.086-3.398-2.555-3.398-1.475 0-2.559 1.282-2.559 3.398 0 2.112 1.084 3.398 2.559 3.398 1.469 0 2.555-1.282 2.555-3.398zm-.848 0c0 1.612-.732 2.487-1.707 2.487-.979 0-1.708-.875-1.708-2.487s.729-2.487 1.708-2.487c.975 0 1.707.875 1.707 2.487zM546.545 160.343v6.614h.815v-4.789h.053l1.674 4.78h.676l1.674-4.777h.053v4.786h.815v-6.614h-1.039l-1.808 5.142h-.066l-1.807-5.142h-1.04zM559.58 162.494c-.194-1.415-1.145-2.242-2.345-2.242-1.469 0-2.552 1.282-2.552 3.398s1.078 3.398 2.552 3.398c1.248 0 2.159-.911 2.345-2.219l-.865-.003c-.147.846-.756 1.311-1.474 1.311-.973 0-1.707-.869-1.707-2.487 0-1.605.731-2.487 1.71-2.487.723 0 1.33.475 1.471 1.331h.865zM565.138 166.957h1.045l-2.342-3.623 2.355-2.991h-1.061l-2.209 2.793h-.294v-2.793h-.856v6.614h.856v-2.965h.588l1.918 2.965zM628.541 95.105h1.045l-2.342-3.624 2.356-2.99h-1.062l-2.209 2.793h-.294v-2.793h-.856v6.614h.856V92.14h.588l1.918 2.965zM631.624 95.105h.857V92.78h1.164c1.316 0 1.967-.927 1.967-2.148 0-1.218-.645-2.141-1.965-2.141h-2.023v6.614zm.857-3.171v-2.587h1.075c.848 0 1.194.536 1.194 1.285 0 .75-.346 1.302-1.183 1.302h-1.086zM637.665 95.105l.521-1.75h2.217l.518 1.75h.909l-2.042-6.614h-.99l-2.043 6.614h.91zm.77-2.59l.837-2.823h.044l.837 2.823h-1.718zM648.268 90.642c-.194-1.415-1.144-2.242-2.344-2.242-1.469 0-2.553 1.282-2.553 3.398s1.078 3.398 2.553 3.398c1.247 0 2.159-.911 2.344-2.22l-.864-.002c-.147.846-.757 1.311-1.475 1.311-.973 0-1.707-.869-1.707-2.487 0-1.605.732-2.487 1.71-2.487.723 0 1.33.475 1.472 1.33h.864zM650.464 95.105h.856v-2.884h2.83v2.884h.859v-6.614h-.859v2.874h-2.83v-2.874h-.856v6.614zM662.358 91.798c0-2.116-1.086-3.398-2.555-3.398-1.475 0-2.558 1.282-2.558 3.398 0 2.112 1.083 3.398 2.558 3.398 1.469 0 2.555-1.282 2.555-3.398zm-.848 0c0 1.612-.732 2.487-1.707 2.487-.979 0-1.708-.875-1.708-2.487s.729-2.487 1.708-2.487c.975 0 1.707.875 1.707 2.487zM668.383 95.105v-6.614h-2.024c-1.316 0-1.965.856-1.965 2.073 0 .888.347 1.564 1.042 1.864l-1.258 2.677h.976l1.153-2.503H667.526v2.503h.857zm-.857-3.362h-1.086c-.834 0-1.184-.433-1.184-1.179 0-.75.35-1.217 1.195-1.217h1.075v2.396zM670.798 95.105h.856V92.78h1.164c1.317 0 1.968-.927 1.968-2.148 0-1.218-.646-2.141-1.965-2.141h-2.023v6.614zm.856-3.171v-2.587h1.076c.848 0 1.194.536 1.194 1.285 0 .75-.346 1.302-1.183 1.302h-1.087zM681.675 90.642c-.194-1.415-1.144-2.242-2.344-2.242-1.469 0-2.553 1.282-2.553 3.398s1.078 3.398 2.553 3.398c1.247 0 2.159-.911 2.344-2.22l-.864-.002c-.147.846-.757 1.311-1.475 1.311-.973 0-1.707-.869-1.707-2.487 0-1.605.732-2.487 1.71-2.487.723 0 1.33.475 1.472 1.33h.864zM687.233 95.105h1.045l-2.342-3.624 2.356-2.99h-1.062l-2.209 2.793h-.294v-2.793h-.856v6.614h.856V92.14h.588l1.918 2.965zM683.576 147.04h.388c.887 0 1.181-.579 1.43-1.237l1.963-5.469h-.898l-1.325 3.825-1.489-3.825h-.909l1.996 4.965-.08.235c-.122.346-.311.627-.735.627h-.341v.879zM688.908 146.949h.244c1.291 0 1.602-1.117 1.676-3.243l.089-2.525h1.938v5.768h.845v-6.615h-3.589l-.097 3.107c-.061 1.916-.261 2.617-.94 2.636l-.166.007v.865zM696.597 146.949l.521-1.75h2.218l.518 1.75h.909l-2.043-6.615h-.989l-2.043 6.615h.909zm.771-2.59l.837-2.823h.044l.837 2.823h-1.718zM702.754 146.949h.856v-2.884h2.83v2.884h.859v-6.615h-.859v2.875h-2.83v-2.875h-.856v6.615zM712.159 143.225h-2.517v.837h2.517v-.837zM714.407 147.04h.388c.887 0 1.181-.579 1.43-1.237l1.962-5.469h-.898l-1.324 3.825-1.489-3.825h-.909l1.996 4.965-.081.235c-.122.346-.31.627-.734.627h-.341v.879zM719.739 148.548h.82v-1.599h3.811v1.589h.82v-2.435h-.643v-5.769h-3.5l-.133 2.794c-.086 1.841-.422 2.6-.801 2.975h-.374v2.445zm1.383-2.445c.324-.604.543-1.576.612-2.975l.089-1.935h1.904v4.91h-2.605zM727.119 144.85c.108 1.253.812 2.19 2.181 2.19 1.37 0 2.245-1.192 2.245-3.046v-.688c0-1.854-.887-3.062-2.292-3.062-1.336 0-2.026.949-2.137 2.229h.873c.089-.86.436-1.37 1.264-1.37.912 0 1.422.859 1.425 2.196h-2.093v.847h2.09c-.036 1.166-.474 2.047-1.375 2.047-.851 0-1.214-.471-1.311-1.343h-.87z" fill="#fff"/><path d="M83.265 30.834c0 1.754-1.22 3.177-2.727 3.177-1.505 0-2.726-1.423-2.726-3.177 0-1.755 1.22-3.177 2.726-3.177s2.727 1.422 2.727 3.177z" fill="#272722"/><path fill-rule="evenodd" clip-rule="evenodd" d="M80.538 33.101c1.075 0 1.946-1.015 1.946-2.267 0-1.253-.871-2.268-1.946-2.268-1.074 0-1.945 1.015-1.945 2.268 0 1.252.87 2.267 1.945 2.267zm0 .91c1.506 0 2.727-1.423 2.727-3.177 0-1.755-1.22-3.177-2.727-3.177-1.505 0-2.726 1.422-2.726 3.177 0 1.754 1.22 3.177 2.726 3.177z" fill="#fff"/><path d="M16.33 104.65c0 1.755-1.221 3.177-2.727 3.177-1.505 0-2.726-1.422-2.726-3.177 0-1.754 1.22-3.177 2.726-3.177s2.726 1.423 2.726 3.177z" fill="#131313"/><path fill-rule="evenodd" clip-rule="evenodd" d="M13.603 106.917c1.075 0 1.946-1.015 1.946-2.267s-.871-2.267-1.946-2.267c-1.074 0-1.946 1.015-1.946 2.267s.872 2.267 1.946 2.267zm0 .91c1.506 0 2.726-1.422 2.726-3.177 0-1.754-1.22-3.177-2.726-3.177-1.505 0-2.726 1.423-2.726 3.177 0 1.755 1.22 3.177 2.726 3.177z" fill="#fff"/><path d="M167.774 142.026c0 1.755-1.221 3.177-2.727 3.177-1.505 0-2.726-1.422-2.726-3.177 0-1.754 1.221-3.177 2.726-3.177 1.506 0 2.727 1.423 2.727 3.177z" fill="#4D5648"/><path fill-rule="evenodd" clip-rule="evenodd" d="M165.047 144.294c1.075 0 1.946-1.015 1.946-2.268 0-1.252-.871-2.267-1.946-2.267-1.074 0-1.945 1.015-1.945 2.267 0 1.253.871 2.268 1.945 2.268zm0 .909c1.506 0 2.727-1.422 2.727-3.177 0-1.754-1.221-3.177-2.727-3.177-1.505 0-2.726 1.423-2.726 3.177 0 1.755 1.221 3.177 2.726 3.177z" fill="#fff"/><path d="M192.992 161.884c0 1.755-1.22 3.177-2.726 3.177-1.505 0-2.726-1.422-2.726-3.177 0-1.754 1.221-3.176 2.726-3.176 1.506 0 2.726 1.422 2.726 3.176z" fill="#47443E"/><path fill-rule="evenodd" clip-rule="evenodd" d="M190.266 164.152c1.075 0 1.946-1.015 1.946-2.268 0-1.252-.871-2.267-1.946-2.267-1.074 0-1.945 1.015-1.945 2.267 0 1.253.871 2.268 1.945 2.268zm0 .909c1.506 0 2.726-1.422 2.726-3.177 0-1.754-1.22-3.176-2.726-3.176-1.505 0-2.726 1.422-2.726 3.176 0 1.755 1.221 3.177 2.726 3.177z" fill="#fff"/><path d="M261.828 115.818c0 1.755-1.22 3.177-2.726 3.177-1.505 0-2.726-1.422-2.726-3.177 0-1.755 1.221-3.177 2.726-3.177 1.506 0 2.726 1.422 2.726 3.177z" fill="#93A47C"/><path fill-rule="evenodd" clip-rule="evenodd" d="M259.102 118.085c1.075 0 1.946-1.015 1.946-2.267s-.871-2.267-1.946-2.267c-1.074 0-1.946 1.015-1.946 2.267s.872 2.267 1.946 2.267zm0 .91c1.506 0 2.726-1.422 2.726-3.177 0-1.755-1.22-3.177-2.726-3.177-1.505 0-2.726 1.422-2.726 3.177 0 1.755 1.221 3.177 2.726 3.177z" fill="#fff"/><path d="M322.487 146.794c0 1.754-1.221 3.177-2.726 3.177-1.506 0-2.727-1.423-2.727-3.177 0-1.755 1.221-3.177 2.727-3.177 1.505 0 2.726 1.422 2.726 3.177z" fill="#738F8C"/><path fill-rule="evenodd" clip-rule="evenodd" d="M319.761 149.061c1.074 0 1.945-1.015 1.945-2.267 0-1.253-.871-2.268-1.945-2.268-1.075 0-1.946 1.015-1.946 2.268 0 1.252.871 2.267 1.946 2.267zm0 .91c1.505 0 2.726-1.423 2.726-3.177 0-1.755-1.221-3.177-2.726-3.177-1.506 0-2.727 1.422-2.727 3.177 0 1.754 1.221 3.177 2.727 3.177z" fill="#fff"/><path d="M402.226 168.239c0 1.755-1.221 3.177-2.727 3.177-1.505 0-2.726-1.422-2.726-3.177 0-1.755 1.221-3.177 2.726-3.177 1.506 0 2.727 1.422 2.727 3.177z" fill="#789186"/><path fill-rule="evenodd" clip-rule="evenodd" d="M399.499 170.506c1.075 0 1.946-1.015 1.946-2.267s-.871-2.267-1.946-2.267c-1.074 0-1.945 1.015-1.945 2.267s.871 2.267 1.945 2.267zm0 .91c1.506 0 2.727-1.422 2.727-3.177 0-1.755-1.221-3.177-2.727-3.177-1.505 0-2.726 1.422-2.726 3.177 0 1.755 1.221 3.177 2.726 3.177z" fill="#fff"/><path d="M428.124 121.38c0 1.755-1.221 3.177-2.726 3.177-1.506 0-2.726-1.422-2.726-3.177 0-1.755 1.22-3.177 2.726-3.177 1.505 0 2.726 1.422 2.726 3.177z" fill="#8CBABB"/><path fill-rule="evenodd" clip-rule="evenodd" d="M425.398 123.647c1.074 0 1.945-1.015 1.945-2.267s-.871-2.267-1.945-2.267c-1.075 0-1.946 1.015-1.946 2.267s.871 2.267 1.946 2.267zm0 .91c1.505 0 2.726-1.422 2.726-3.177 0-1.755-1.221-3.177-2.726-3.177-1.506 0-2.726 1.422-2.726 3.177 0 1.755 1.22 3.177 2.726 3.177z" fill="#fff"/><path d="M472.423 157.12c0 1.755-1.22 3.177-2.726 3.177s-2.726-1.422-2.726-3.177c0-1.755 1.22-3.177 2.726-3.177s2.726 1.422 2.726 3.177z" fill="#414847"/><path fill-rule="evenodd" clip-rule="evenodd" d="M469.697 159.387c1.074 0 1.946-1.015 1.946-2.267s-.872-2.267-1.946-2.267c-1.075 0-1.946 1.015-1.946 2.267s.871 2.267 1.946 2.267zm0 .91c1.506 0 2.726-1.422 2.726-3.177 0-1.755-1.22-3.177-2.726-3.177s-2.726 1.422-2.726 3.177c0 1.755 1.22 3.177 2.726 3.177z" fill="#fff"/><path d="M554.893 145.204c0 1.755-1.221 3.177-2.726 3.177-1.506 0-2.726-1.422-2.726-3.177 0-1.754 1.22-3.177 2.726-3.177 1.505 0 2.726 1.423 2.726 3.177z" fill="#577379"/><path fill-rule="evenodd" clip-rule="evenodd" d="M552.167 147.472c1.074 0 1.946-1.015 1.946-2.268 0-1.252-.872-2.267-1.946-2.267-1.075 0-1.946 1.015-1.946 2.267 0 1.253.871 2.268 1.946 2.268zm0 .909c1.505 0 2.726-1.422 2.726-3.177 0-1.754-1.221-3.177-2.726-3.177-1.506 0-2.726 1.423-2.726 3.177 0 1.755 1.22 3.177 2.726 3.177z" fill="#fff"/><path d="M660.204 102.316c0 1.754-1.22 3.177-2.726 3.177-1.505 0-2.726-1.423-2.726-3.177 0-1.755 1.221-3.177 2.726-3.177 1.506 0 2.726 1.422 2.726 3.177z" fill="#3E403A"/><path fill-rule="evenodd" clip-rule="evenodd" d="M657.478 104.583c1.075 0 1.946-1.015 1.946-2.267s-.871-2.268-1.946-2.268c-1.074 0-1.946 1.016-1.946 2.268 0 1.252.872 2.267 1.946 2.267zm0 .91c1.506 0 2.726-1.423 2.726-3.177 0-1.755-1.22-3.177-2.726-3.177-1.505 0-2.726 1.422-2.726 3.177 0 1.754 1.221 3.177 2.726 3.177z" fill="#fff"/><path d="M709.405 127.387c0 1.755-1.221 3.177-2.726 3.177-1.506 0-2.727-1.422-2.727-3.177 0-1.754 1.221-3.177 2.727-3.177 1.505 0 2.726 1.423 2.726 3.177z" fill="#181A19"/><path fill-rule="evenodd" clip-rule="evenodd" d="M706.679 129.655c1.074 0 1.945-1.015 1.945-2.268 0-1.252-.871-2.267-1.945-2.267-1.075 0-1.946 1.015-1.946 2.267 0 1.253.871 2.268 1.946 2.268zm0 .909c1.505 0 2.726-1.422 2.726-3.177 0-1.754-1.221-3.177-2.726-3.177-1.506 0-2.727 1.423-2.727 3.177 0 1.755 1.221 3.177 2.727 3.177z" fill="#fff"/></svg>